<svg xmlns="http://www.w3.org/2000/svg" xmlns:oryx="http://oryx-editor.org" id="_D97013CE-4EB6-4835-9701-D8166BC516A8" width="294" height="304.86" xmlns:xlink="http://www.w3.org/1999/xlink" xmlns:svg="http://www.w3.org/2000/svg"><defs/><g font-family="Verdana,sans-serif" font-size="12px" font-style="normal" font-variant="normal" font-weight="normal" font-size-adjust="none" stroke="none" line-heigth="normal"><g class="stencils" transform="translate(15 15.86)"><g class="me"/><g class="children"><g id="_67E69295-68F0-4C14-8B73-9F9C407BE946" bpmn2nodeid="_50D6B6F8-4FD4-4223-BA9B-FE7B5EC87399"><g class="stencils" transform="translate(137 40.72)"><g class="me"><g id="_67E69295-68F0-4C14-8B73-9F9C407BE946" pointer-events="fill" oryx:minimumSize="50 40">   	<defs id="_67E69295-68F0-4C14-8B73-9F9C407BE946__67E69295-68F0-4C14-8B73-9F9C407BE946_17"> 		<radialGradient id="_67E69295-68F0-4C14-8B73-9F9C407BE946background" cx="10%" cy="10%" r="100%" fx="10%" fy="10%"> 			<stop id="_67E69295-68F0-4C14-8B73-9F9C407BE946__67E69295-68F0-4C14-8B73-9F9C407BE946_18" stop-color="rgb(255, 255, 255)" stop-opacity="1" offset="0%"/> 			<stop id="_67E69295-68F0-4C14-8B73-9F9C407BE946fill_el" stop-color="rgb(250, 250, 210)" stop-opacity="1" offset="100%"/> 		</radialGradient> 		<radialGradient id="_67E69295-68F0-4C14-8B73-9F9C407BE946borderbackground" cx="10%" cy="10%" r="100%" fx="10%" fy="10%"> 			<stop id="_67E69295-68F0-4C14-8B73-9F9C407BE946__67E69295-68F0-4C14-8B73-9F9C407BE946_19" stop-color="rgb(255, 255, 255)" stop-opacity="1" offset="0%"/> 			<stop id="_67E69295-68F0-4C14-8B73-9F9C407BE946fill_border" stop-color="rgb(0, 0, 0)" stop-opacity="1" stroke="#000000" offset="100%"/> 		</radialGradient> 	</defs> 	 	<rect id="_67E69295-68F0-4C14-8B73-9F9C407BE946text_frame" fill="none" stroke="none" stroke-width="0" x="1" y="1" width="94" height="79" rx="10" ry="10" oryx:anchors="bottom top right left"/> 	<rect id="_67E69295-68F0-4C14-8B73-9F9C407BE946bg_frame" fill="url(#_67E69295-68F0-4C14-8B73-9F9C407BE946background) #ffffcc" stroke="#000000" stroke-width="1" x="0" y="0" width="100" height="80" rx="10" ry="10" oryx:resize="vertical horizontal"/> 		<text id="_67E69295-68F0-4C14-8B73-9F9C407BE946text_name" letter-spacing="-0.01px" font-size="12px" visibility="inherit" fill="#000000" stroke="black" stroke-width="0pt" text-anchor="middle" transform="rotate(0 50 40)" x="50" y="40" oryx:align="middle center" oryx:fittoelem="text_frame" oryx:fontSize="12"><tspan x="50" y="40" dy="-1">Dynamic User </tspan><tspan x="50" y="40" dy="11">Task</tspan></text>     <g id="_67E69295-68F0-4C14-8B73-9F9C407BE946manualTask" display="none" transform="scale(0.7) translate(8 8)">     	<path id="_67E69295-68F0-4C14-8B73-9F9C407BE946frame" style="opacity:1;fill:none;fill-opacity:1;stroke-width:1" stroke="#000000" d="M 0.5 3.751 l 4.083 -3.25 c 0 0 11.166 0.083 12.083 0.083 s -2.417 2.917 -1.5 2.917 s 11.667 0 12.584 0 c 1.166 1.708 -0.168 3.167 -0.834 3.667 s 0.875 1.917 -1 4.417 c -0.75 0.25 0.75 1.875 -1.333 3.333 c -1.167 0.583 0.583 1.542 -1.25 2.833 c -1.167 0 -20.833 0.083 -20.833 0.083 l -2 -1.333 V 3.751 Z" oryx:anchors="top left"/> 		<path id="_67E69295-68F0-4C14-8B73-9F9C407BE946frame2" style="opacity:1;fill:none;stroke-width:2" stroke="#000000" d="M 13.5 7 L 27 7" oryx:anchors="top left"/> 		<path id="_67E69295-68F0-4C14-8B73-9F9C407BE946frame3" style="opacity:1;fill:none;stroke-width:2" stroke="#000000" d="M 13.5 11 L 26 11" oryx:anchors="top left"/> 		<path id="_67E69295-68F0-4C14-8B73-9F9C407BE946frame4" style="opacity:1;fill:none;stroke-width:1.5" stroke="#000000" d="M 14 14.5 L 25 14.5" oryx:anchors="top left"/> 		<path id="_67E69295-68F0-4C14-8B73-9F9C407BE946frame5" style="opacity:1;fill:none;stroke-width:1.5" stroke="#000000" d="M 8.2 3.1 L 15 3.1" oryx:anchors="top left"/> 	</g> 	 	<g id="_67E69295-68F0-4C14-8B73-9F9C407BE946businessRuleTask" display="none" transform="scale(0.7) translate(8 8)"> 		<rect id="_67E69295-68F0-4C14-8B73-9F9C407BE946frame6" style="opacity:1;fill:#B3B1B3;fill-opacity:1;" stroke="#000000" x="0" y="0" width="22" height="4" oryx:anchors="top left"/> 		<rect id="_67E69295-68F0-4C14-8B73-9F9C407BE946frame7" style="opacity:1;fill:none;" stroke="#000000" x="0" y="4" width="22" height="12" oryx:anchors="top left"/> 		<path id="_67E69295-68F0-4C14-8B73-9F9C407BE946frame8" style="opacity:1;fill:none;" stroke="#000000" d="M 0 10 L 22 10" oryx:anchors="top left"/> 		<path id="_67E69295-68F0-4C14-8B73-9F9C407BE946frame9" style="opacity:1; fill:none;" stroke="#000000" d="M 7 4 L 7 16" oryx:anchors="top left"/> 	</g> 	 	<g id="_67E69295-68F0-4C14-8B73-9F9C407BE946scriptTask" display="none" transform="scale(0.7) translate(8 8)"> 		<path id="_67E69295-68F0-4C14-8B73-9F9C407BE946frame10" style="opacity:1;fill:none;" stroke="#000000" d="M 6.402 0.5 h 14.5 c 0 0 -5.833 2.833 -5.833 5.583 s 4.417 6 4.417 9.167 s -4.167 5.083 -4.167 5.083 H 0.235 c 0 0 5 -2.667 5 -5 s -4.583 -6.75 -4.583 -9.25 S 6.402 0.5 6.402 0.5 Z" oryx:anchors="top left"/> 		<path id="_67E69295-68F0-4C14-8B73-9F9C407BE946frame11" style="opacity:1;fill:none;stroke-width:1.5" stroke="#000000" d="M 3.5 4.5 L 13.5 4.5" oryx:anchors="top left"/> 		<path id="_67E69295-68F0-4C14-8B73-9F9C407BE946frame12" style="opacity:1;fill:none;stroke-width:1.5" stroke="#000000" d="M 3.8 8.5 L 13.8 8.5" oryx:anchors="top left"/> 		<path id="_67E69295-68F0-4C14-8B73-9F9C407BE946frame13" style="opacity:1;fill:none;stroke-width:1.5" stroke="#000000" d="M 6.3 12.5 L 16.3 12.5" oryx:anchors="top left"/> 		<path id="_67E69295-68F0-4C14-8B73-9F9C407BE946frame14" style="opacity:1;fill:none;stroke-width:1.5" stroke="#000000" d="M 6.5 16.5 L 16.5 16.5" oryx:anchors="top left"/> 	</g> 	 	<g id="_67E69295-68F0-4C14-8B73-9F9C407BE946userTask" display="inherit" transform="scale(0.7) translate(8 8)"> 		<path id="_67E69295-68F0-4C14-8B73-9F9C407BE946frame15" style="opacity:1;fill:#F4F6F7" stroke="#000000" d="M 0.585 24.167 h 24.083 v -7.833 c 0 0 -2.333 -3.917 -7.083 -5.167 h -9.25 c -4.417 1.333 -7.833 5.75 -7.833 5.75 L 0.585 24.167 Z" oryx:anchors="top left"/> 		<path id="_67E69295-68F0-4C14-8B73-9F9C407BE946frame16" style="opacity:1;fill:none" stroke="#000000" d="M 6 20 L 6 24" oryx:anchors="top left"/> 		<path id="_67E69295-68F0-4C14-8B73-9F9C407BE946frame17" style="opacity:1;fill:none" stroke="#000000" d="M 20 20 L 20 24" oryx:anchors="top left"/> 		<circle id="_67E69295-68F0-4C14-8B73-9F9C407BE946frame18" fill="black" stroke="#000000" cx="13.002" cy="5.916" r="5.417" oryx:anchors="top left"/> 		<path id="_67E69295-68F0-4C14-8B73-9F9C407BE946frame19" style="opacity:1;fill:#F0EFF0;" stroke="#000000" d="M 8.043 7.083 c 0 0 2.814 -2.426 5.376 -1.807 s 4.624 -0.693 4.624 -0.693 c 0.25 1.688 0.042 3.75 -1.458 5.584 c 0 0 1.083 0.75 1.083 1.5 s 0.125 1.875 -1 3 s -5.5 1.25 -6.75 0 S 8.668 12.834 8.668 12 s 0.583 -1.25 1.25 -1.917 C 8.835 9.5 7.419 7.708 8.043 7.083 Z" oryx:anchors="top left"/> 	</g> 	 	<g id="_67E69295-68F0-4C14-8B73-9F9C407BE946serviceTask" display="none" transform="scale(0.7) translate(8 8)"> 		<polygon id="_67E69295-68F0-4C14-8B73-9F9C407BE946frame20" style="opacity:1;fill:#ffffff" stroke="#000000" points="15.392,5.064 17.954,2.502 20.347,4.895 17.786,7.455 18.729,9.732 22.353,9.732 22.353,13.115 18.731,13.115 17.788,15.392 20.351,17.955 17.958,20.347 15.397,17.786 13.12,18.729 13.12,22.353 9.737,22.353 9.737,18.731 7.46,17.788 4.897,20.35 2.506,17.958 5.066,15.397 4.124,13.12 0.5,13.12 0.5,9.737 4.121,9.737 5.065,7.461 2.503,4.898 4.895,2.506 7.455,5.066 9.732,4.125 9.732,0.5 13.116,0.5 13.116,4.121" oryx:anchors="top left"/> 		<circle id="_67E69295-68F0-4C14-8B73-9F9C407BE946frame21" style="opacity:1;fill:none" stroke="#000000" cx="11.427" cy="11.426" r="3.714" oryx:anchors="top left"/> 		<polygon id="_67E69295-68F0-4C14-8B73-9F9C407BE946frame22" style="opacity:1;fill:#ffffff" stroke="#000000" points="21.392,11.064 23.954,8.502 26.347,10.895 23.786,13.455 24.729,15.732 28.353,15.732 28.353,19.115 24.731,19.115 23.788,21.392 26.351,23.955 23.958,26.347 21.397,23.786 19.12,24.729 19.12,28.353 15.737,28.353 15.737,24.731 13.46,23.788 10.897,26.35 8.506,23.958 11.066,21.397 10.124,19.12 6.5,19.12 6.5,15.737 10.121,15.737 11.065,13.461 8.503,10.898 10.895,8.506 13.455,11.066 15.732,10.125 15.732,6.5 19.116,6.5 19.116,10.121" oryx:anchors="top left"/> 		<circle id="_67E69295-68F0-4C14-8B73-9F9C407BE946frame23" style="opacity:1;fill:none;" stroke="#000000" cx="17.427" cy="17.426" r="3.714" oryx:anchors="top left"/> 	</g> 	 	<g id="_67E69295-68F0-4C14-8B73-9F9C407BE946sendTask" display="none"> 		<path id="_67E69295-68F0-4C14-8B73-9F9C407BE946stframe24" fill="black" stroke="#ffffff" stroke-width="1" d="M 8 11 L 8 21 L 24 21 L 24 11 L 16 17 Z" oryx:anchors="left top"/> 		<path id="_67E69295-68F0-4C14-8B73-9F9C407BE946stframe25" fill="black" stroke="#ffffff" stroke-width="1" d="M 7 10 L 16 17 L 25 10 Z" oryx:anchors="left top"/> 	</g> 	 	<g id="_67E69295-68F0-4C14-8B73-9F9C407BE946receiveTask" display="none"> 		<path id="_67E69295-68F0-4C14-8B73-9F9C407BE946frame26" fill="none" stroke="#000000" stroke-width="1" d="M 8 11 L 8 21 L 24 21 L 24 11 Z M 8 11 L 16 17 L 24 11" oryx:anchors="left top"/> 	</g> 	 	<g id="_67E69295-68F0-4C14-8B73-9F9C407BE946none" display="inherit"/>  	<g id="_67E69295-68F0-4C14-8B73-9F9C407BE946sequential" display="none">         <path id="_67E69295-68F0-4C14-8B73-9F9C407BE946__67E69295-68F0-4C14-8B73-9F9C407BE946_20" fill="none" stroke="#000000" stroke-width="2" d="M 46 76 h 10 M 46 72 h 10 M 46 68 h 10" oryx:anchors="bottom"/>     </g>   </g></g><g class="children" style="overflow:hidden"/><g class="edge"/></g><g class="controls"><g class="dockers"/><g class="magnets" transform="translate(137 40.72)"><g display="none" pointer-events="all" transform="translate(-7 12)"><circle fill="red" fill-opacity="0.3" stroke="none" cx="8" cy="8" r="4"/></g><g display="none" pointer-events="all" transform="translate(-7 32)"><circle fill="red" fill-opacity="0.3" stroke="none" cx="8" cy="8" r="4"/></g><g display="none" pointer-events="all" transform="translate(-7 52)"><circle fill="red" fill-opacity="0.3" stroke="none" cx="8" cy="8" r="4"/></g><g display="none" pointer-events="all" transform="translate(17 71)"><circle fill="red" fill-opacity="0.3" stroke="none" cx="8" cy="8" r="4"/></g><g display="none" pointer-events="all" transform="translate(42 71)"><circle fill="red" fill-opacity="0.3" stroke="none" cx="8" cy="8" r="4"/></g><g display="none" pointer-events="all" transform="translate(67 71)"><circle fill="red" fill-opacity="0.3" stroke="none" cx="8" cy="8" r="4"/></g><g display="none" pointer-events="all" transform="translate(91 12)"><circle fill="red" fill-opacity="0.3" stroke="none" cx="8" cy="8" r="4"/></g><g display="none" pointer-events="all" transform="translate(91 32)"><circle fill="red" fill-opacity="0.3" stroke="none" cx="8" cy="8" r="4"/></g><g display="none" pointer-events="all" transform="translate(91 52)"><circle fill="red" fill-opacity="0.3" stroke="none" cx="8" cy="8" r="4"/></g><g display="none" pointer-events="all" transform="translate(17 -7)"><circle fill="red" fill-opacity="0.3" stroke="none" cx="8" cy="8" r="4"/></g><g display="none" pointer-events="all" transform="translate(42 -7)"><circle fill="red" fill-opacity="0.3" stroke="none" cx="8" cy="8" r="4"/></g><g display="none" pointer-events="all" transform="translate(67 -7)"><circle fill="red" fill-opacity="0.3" stroke="none" cx="8" cy="8" r="4"/></g><g display="none" pointer-events="all" transform="translate(42 32)"><circle fill="red" fill-opacity="0.3" stroke="none" cx="8" cy="8" r="4"/></g></g></g></g><g id="_0E7CE08C-BADF-4989-91B3-1BBDF4A2C0F9" bpmn2nodeid="_0C110123-8F76-4BD2-B8C7-2EC524A255DD"><g class="stencils" transform="translate(150 180)"><g class="me"><g id="_0E7CE08C-BADF-4989-91B3-1BBDF4A2C0F9" pointer-events="fill" oryx:minimumSize="50 40">   	<defs id="_0E7CE08C-BADF-4989-91B3-1BBDF4A2C0F9__0E7CE08C-BADF-4989-91B3-1BBDF4A2C0F9_17"> 		<radialGradient id="_0E7CE08C-BADF-4989-91B3-1BBDF4A2C0F9background" cx="10%" cy="10%" r="100%" fx="10%" fy="10%"> 			<stop id="_0E7CE08C-BADF-4989-91B3-1BBDF4A2C0F9__0E7CE08C-BADF-4989-91B3-1BBDF4A2C0F9_18" stop-color="rgb(255, 255, 255)" stop-opacity="1" offset="0%"/> 			<stop id="_0E7CE08C-BADF-4989-91B3-1BBDF4A2C0F9fill_el" stop-color="rgb(250, 250, 210)" stop-opacity="1" offset="100%"/> 		</radialGradient> 		<radialGradient id="_0E7CE08C-BADF-4989-91B3-1BBDF4A2C0F9borderbackground" cx="10%" cy="10%" r="100%" fx="10%" fy="10%"> 			<stop id="_0E7CE08C-BADF-4989-91B3-1BBDF4A2C0F9__0E7CE08C-BADF-4989-91B3-1BBDF4A2C0F9_19" stop-color="rgb(255, 255, 255)" stop-opacity="1" offset="0%"/> 			<stop id="_0E7CE08C-BADF-4989-91B3-1BBDF4A2C0F9fill_border" stop-color="rgb(0, 0, 0)" stop-opacity="1" stroke="#000000" offset="100%"/> 		</radialGradient> 	</defs> 	 	<rect id="_0E7CE08C-BADF-4989-91B3-1BBDF4A2C0F9text_frame" fill="none" stroke="none" stroke-width="0" x="1" y="1" width="94" height="79" rx="10" ry="10" oryx:anchors="bottom top right left"/> 	<rect id="_0E7CE08C-BADF-4989-91B3-1BBDF4A2C0F9bg_frame" fill="url(#_0E7CE08C-BADF-4989-91B3-1BBDF4A2C0F9background) #ffffcc" stroke="#000000" stroke-width="1" x="0" y="0" width="100" height="80" rx="10" ry="10" oryx:resize="vertical horizontal"/> 		<text id="_0E7CE08C-BADF-4989-91B3-1BBDF4A2C0F9text_name" letter-spacing="-0.01px" font-size="12px" visibility="inherit" fill="#000000" stroke="black" stroke-width="0pt" text-anchor="middle" transform="rotate(0 50 40)" x="50" y="40" oryx:align="middle center" oryx:fittoelem="text_frame" oryx:fontSize="12"><tspan id="ext-gen729" x="50" y="40" dy="-7">Another task </tspan><tspan id="ext-gen851" x="50" y="40" dy="5">that is started </tspan><tspan id="ext-gen850" x="50" y="40" dy="17">automatically</tspan></text>     <g id="_0E7CE08C-BADF-4989-91B3-1BBDF4A2C0F9manualTask" display="none" transform="scale(0.7) translate(8 8)">     	<path id="_0E7CE08C-BADF-4989-91B3-1BBDF4A2C0F9frame" style="opacity:1;fill:none;fill-opacity:1;stroke-width:1" stroke="#000000" d="M 0.5 3.751 l 4.083 -3.25 c 0 0 11.166 0.083 12.083 0.083 s -2.417 2.917 -1.5 2.917 s 11.667 0 12.584 0 c 1.166 1.708 -0.168 3.167 -0.834 3.667 s 0.875 1.917 -1 4.417 c -0.75 0.25 0.75 1.875 -1.333 3.333 c -1.167 0.583 0.583 1.542 -1.25 2.833 c -1.167 0 -20.833 0.083 -20.833 0.083 l -2 -1.333 V 3.751 Z" oryx:anchors="top left"/> 		<path id="_0E7CE08C-BADF-4989-91B3-1BBDF4A2C0F9frame2" style="opacity:1;fill:none;stroke-width:2" stroke="#000000" d="M 13.5 7 L 27 7" oryx:anchors="top left"/> 		<path id="_0E7CE08C-BADF-4989-91B3-1BBDF4A2C0F9frame3" style="opacity:1;fill:none;stroke-width:2" stroke="#000000" d="M 13.5 11 L 26 11" oryx:anchors="top left"/> 		<path id="_0E7CE08C-BADF-4989-91B3-1BBDF4A2C0F9frame4" style="opacity:1;fill:none;stroke-width:1.5" stroke="#000000" d="M 14 14.5 L 25 14.5" oryx:anchors="top left"/> 		<path id="_0E7CE08C-BADF-4989-91B3-1BBDF4A2C0F9frame5" style="opacity:1;fill:none;stroke-width:1.5" stroke="#000000" d="M 8.2 3.1 L 15 3.1" oryx:anchors="top left"/> 	</g> 	 	<g id="_0E7CE08C-BADF-4989-91B3-1BBDF4A2C0F9businessRuleTask" display="none" transform="scale(0.7) translate(8 8)"> 		<rect id="_0E7CE08C-BADF-4989-91B3-1BBDF4A2C0F9frame6" style="opacity:1;fill:#B3B1B3;fill-opacity:1;" stroke="#000000" x="0" y="0" width="22" height="4" oryx:anchors="top left"/> 		<rect id="_0E7CE08C-BADF-4989-91B3-1BBDF4A2C0F9frame7" style="opacity:1;fill:none;" stroke="#000000" x="0" y="4" width="22" height="12" oryx:anchors="top left"/> 		<path id="_0E7CE08C-BADF-4989-91B3-1BBDF4A2C0F9frame8" style="opacity:1;fill:none;" stroke="#000000" d="M 0 10 L 22 10" oryx:anchors="top left"/> 		<path id="_0E7CE08C-BADF-4989-91B3-1BBDF4A2C0F9frame9" style="opacity:1; fill:none;" stroke="#000000" d="M 7 4 L 7 16" oryx:anchors="top left"/> 	</g> 	 	<g id="_0E7CE08C-BADF-4989-91B3-1BBDF4A2C0F9scriptTask" display="none" transform="scale(0.7) translate(8 8)"> 		<path id="_0E7CE08C-BADF-4989-91B3-1BBDF4A2C0F9frame10" style="opacity:1;fill:none;" stroke="#000000" d="M 6.402 0.5 h 14.5 c 0 0 -5.833 2.833 -5.833 5.583 s 4.417 6 4.417 9.167 s -4.167 5.083 -4.167 5.083 H 0.235 c 0 0 5 -2.667 5 -5 s -4.583 -6.75 -4.583 -9.25 S 6.402 0.5 6.402 0.5 Z" oryx:anchors="top left"/> 		<path id="_0E7CE08C-BADF-4989-91B3-1BBDF4A2C0F9frame11" style="opacity:1;fill:none;stroke-width:1.5" stroke="#000000" d="M 3.5 4.5 L 13.5 4.5" oryx:anchors="top left"/> 		<path id="_0E7CE08C-BADF-4989-91B3-1BBDF4A2C0F9frame12" style="opacity:1;fill:none;stroke-width:1.5" stroke="#000000" d="M 3.8 8.5 L 13.8 8.5" oryx:anchors="top left"/> 		<path id="_0E7CE08C-BADF-4989-91B3-1BBDF4A2C0F9frame13" style="opacity:1;fill:none;stroke-width:1.5" stroke="#000000" d="M 6.3 12.5 L 16.3 12.5" oryx:anchors="top left"/> 		<path id="_0E7CE08C-BADF-4989-91B3-1BBDF4A2C0F9frame14" style="opacity:1;fill:none;stroke-width:1.5" stroke="#000000" d="M 6.5 16.5 L 16.5 16.5" oryx:anchors="top left"/> 	</g> 	 	<g id="_0E7CE08C-BADF-4989-91B3-1BBDF4A2C0F9userTask" display="inherit" transform="scale(0.7) translate(8 8)"> 		<path id="_0E7CE08C-BADF-4989-91B3-1BBDF4A2C0F9frame15" style="opacity:1;fill:#F4F6F7" stroke="#000000" d="M 0.585 24.167 h 24.083 v -7.833 c 0 0 -2.333 -3.917 -7.083 -5.167 h -9.25 c -4.417 1.333 -7.833 5.75 -7.833 5.75 L 0.585 24.167 Z" oryx:anchors="top left"/> 		<path id="_0E7CE08C-BADF-4989-91B3-1BBDF4A2C0F9frame16" style="opacity:1;fill:none" stroke="#000000" d="M 6 20 L 6 24" oryx:anchors="top left"/> 		<path id="_0E7CE08C-BADF-4989-91B3-1BBDF4A2C0F9frame17" style="opacity:1;fill:none" stroke="#000000" d="M 20 20 L 20 24" oryx:anchors="top left"/> 		<circle id="_0E7CE08C-BADF-4989-91B3-1BBDF4A2C0F9frame18" fill="black" stroke="#000000" cx="13.002" cy="5.916" r="5.417" oryx:anchors="top left"/> 		<path id="_0E7CE08C-BADF-4989-91B3-1BBDF4A2C0F9frame19" style="opacity:1;fill:#F0EFF0;" stroke="#000000" d="M 8.043 7.083 c 0 0 2.814 -2.426 5.376 -1.807 s 4.624 -0.693 4.624 -0.693 c 0.25 1.688 0.042 3.75 -1.458 5.584 c 0 0 1.083 0.75 1.083 1.5 s 0.125 1.875 -1 3 s -5.5 1.25 -6.75 0 S 8.668 12.834 8.668 12 s 0.583 -1.25 1.25 -1.917 C 8.835 9.5 7.419 7.708 8.043 7.083 Z" oryx:anchors="top left"/> 	</g> 	 	<g id="_0E7CE08C-BADF-4989-91B3-1BBDF4A2C0F9serviceTask" display="none" transform="scale(0.7) translate(8 8)"> 		<polygon id="_0E7CE08C-BADF-4989-91B3-1BBDF4A2C0F9frame20" style="opacity:1;fill:#ffffff" stroke="#000000" points="15.392,5.064 17.954,2.502 20.347,4.895 17.786,7.455 18.729,9.732 22.353,9.732 22.353,13.115 18.731,13.115 17.788,15.392 20.351,17.955 17.958,20.347 15.397,17.786 13.12,18.729 13.12,22.353 9.737,22.353 9.737,18.731 7.46,17.788 4.897,20.35 2.506,17.958 5.066,15.397 4.124,13.12 0.5,13.12 0.5,9.737 4.121,9.737 5.065,7.461 2.503,4.898 4.895,2.506 7.455,5.066 9.732,4.125 9.732,0.5 13.116,0.5 13.116,4.121" oryx:anchors="top left"/> 		<circle id="_0E7CE08C-BADF-4989-91B3-1BBDF4A2C0F9frame21" style="opacity:1;fill:none" stroke="#000000" cx="11.427" cy="11.426" r="3.714" oryx:anchors="top left"/> 		<polygon id="_0E7CE08C-BADF-4989-91B3-1BBDF4A2C0F9frame22" style="opacity:1;fill:#ffffff" stroke="#000000" points="21.392,11.064 23.954,8.502 26.347,10.895 23.786,13.455 24.729,15.732 28.353,15.732 28.353,19.115 24.731,19.115 23.788,21.392 26.351,23.955 23.958,26.347 21.397,23.786 19.12,24.729 19.12,28.353 15.737,28.353 15.737,24.731 13.46,23.788 10.897,26.35 8.506,23.958 11.066,21.397 10.124,19.12 6.5,19.12 6.5,15.737 10.121,15.737 11.065,13.461 8.503,10.898 10.895,8.506 13.455,11.066 15.732,10.125 15.732,6.5 19.116,6.5 19.116,10.121" oryx:anchors="top left"/> 		<circle id="_0E7CE08C-BADF-4989-91B3-1BBDF4A2C0F9frame23" style="opacity:1;fill:none;" stroke="#000000" cx="17.427" cy="17.426" r="3.714" oryx:anchors="top left"/> 	</g> 	 	<g id="_0E7CE08C-BADF-4989-91B3-1BBDF4A2C0F9sendTask" display="none"> 		<path id="_0E7CE08C-BADF-4989-91B3-1BBDF4A2C0F9stframe24" fill="black" stroke="#ffffff" stroke-width="1" d="M 8 11 L 8 21 L 24 21 L 24 11 L 16 17 Z" oryx:anchors="left top"/> 		<path id="_0E7CE08C-BADF-4989-91B3-1BBDF4A2C0F9stframe25" fill="black" stroke="#ffffff" stroke-width="1" d="M 7 10 L 16 17 L 25 10 Z" oryx:anchors="left top"/> 	</g> 	 	<g id="_0E7CE08C-BADF-4989-91B3-1BBDF4A2C0F9receiveTask" display="none"> 		<path id="_0E7CE08C-BADF-4989-91B3-1BBDF4A2C0F9frame26" fill="none" stroke="#000000" stroke-width="1" d="M 8 11 L 8 21 L 24 21 L 24 11 Z M 8 11 L 16 17 L 24 11" oryx:anchors="left top"/> 	</g> 	 	<g id="_0E7CE08C-BADF-4989-91B3-1BBDF4A2C0F9none" display="inherit"/>  	<g id="_0E7CE08C-BADF-4989-91B3-1BBDF4A2C0F9sequential" display="none">         <path id="_0E7CE08C-BADF-4989-91B3-1BBDF4A2C0F9__0E7CE08C-BADF-4989-91B3-1BBDF4A2C0F9_20" fill="none" stroke="#000000" stroke-width="2" d="M 46 76 h 10 M 46 72 h 10 M 46 68 h 10" oryx:anchors="bottom"/>     </g>   </g></g><g class="children" style="overflow:hidden"/><g class="edge"/></g><g class="controls"><g class="dockers"/><g class="magnets" transform="translate(150 180)"><g display="none" pointer-events="all" transform="translate(-7 12)"><circle fill="red" fill-opacity="0.3" stroke="none" cx="8" cy="8" r="4"/></g><g display="none" pointer-events="all" transform="translate(-7 32)"><circle fill="red" fill-opacity="0.3" stroke="none" cx="8" cy="8" r="4"/></g><g display="none" pointer-events="all" transform="translate(-7 52)"><circle fill="red" fill-opacity="0.3" stroke="none" cx="8" cy="8" r="4"/></g><g display="none" pointer-events="all" transform="translate(17 71)"><circle fill="red" fill-opacity="0.3" stroke="none" cx="8" cy="8" r="4"/></g><g display="none" pointer-events="all" transform="translate(42 71)"><circle fill="red" fill-opacity="0.3" stroke="none" cx="8" cy="8" r="4"/></g><g display="none" pointer-events="all" transform="translate(67 71)"><circle fill="red" fill-opacity="0.3" stroke="none" cx="8" cy="8" r="4"/></g><g display="none" pointer-events="all" transform="translate(91 12)"><circle fill="red" fill-opacity="0.3" stroke="none" cx="8" cy="8" r="4"/></g><g display="none" pointer-events="all" transform="translate(91 32)"><circle fill="red" fill-opacity="0.3" stroke="none" cx="8" cy="8" r="4"/></g><g display="none" pointer-events="all" transform="translate(91 52)"><circle fill="red" fill-opacity="0.3" stroke="none" cx="8" cy="8" r="4"/></g><g display="none" pointer-events="all" transform="translate(17 -7)"><circle fill="red" fill-opacity="0.3" stroke="none" cx="8" cy="8" r="4"/></g><g display="none" pointer-events="all" transform="translate(42 -7)"><circle fill="red" fill-opacity="0.3" stroke="none" cx="8" cy="8" r="4"/></g><g display="none" pointer-events="all" transform="translate(67 -7)"><circle fill="red" fill-opacity="0.3" stroke="none" cx="8" cy="8" r="4"/></g><g display="none" pointer-events="all" transform="translate(42 32)"><circle fill="red" fill-opacity="0.3" stroke="none" cx="8" cy="8" r="4"/></g></g></g></g></g><g class="edge"/><text id="_A43DAA3D-8807-4D01-B97B-227FB89BAE1E" font-size="12px" style="stroke-width:1;fill:rgb(177,194,214);font-family:arial;font-weight:bold" onmouseover="ORYX.Plugins.CanvasTitle.addToolTip('_A43DAA3D-8807-4D01-B97B-227FB89BAE1E')" onclick="ORYX.Plugins.CanvasTitle.openTextualAnalysis()" transform="translate(10 20)">myfirstcase v.1.0</text></g></g></svg>