<svg xmlns="http://www.w3.org/2000/svg" viewBox="0 0 712 229" width="712" height="229" version="1.1" xmlns:xlink="http://www.w3.org/1999/xlink"><defs/><g transform="matrix(1, 0, 0, 1, 0, 0)"><g><g><g><path fill="none" stroke="#d3d3d3" stroke-dasharray="5px" stroke-miterlimit="10" stroke-opacity="0.8" paint-order="fill" d="M 0 0 L 1200 0"/></g><g><path fill="none" stroke="#d3d3d3" stroke-dasharray="5px" stroke-miterlimit="10" stroke-opacity="0.8" paint-order="fill" d="M 0 0 L 0 800"/></g></g><g id="_292D119E-8FE2-4639-B2D9-EC60A1368B7E" transform="matrix(1, 0, 0, 1, 100, 100)" bpmn2nodeid="_292D119E-8FE2-4639-B2D9-EC60A1368B7E"><g><path fill="none" stroke="none"/></g><g transform="matrix(0.125, 0, 0, 0.125, 0, 0)"><g transform="matrix(1, 0, 0, 1, 0, 0)"><path id="_292D119E-8FE2-4639-B2D9-EC60A1368B7E?shapeType=BACKGROUND" fill="#e8fae6" stroke="none" paint-order="stroke" d="M 0 0 M 444 224 C 444 263.9 434.2 300.8 414.4 334.5 C 394.7 368.2 368 394.9 334.4 414.5 C 300.8 434.1 263.9 444 224 444 C 184.1 444 147.2 434.2 113.5 414.4 C 79.8 394.7 53.1 368 33.5 334.4 C 13.9 300.8 4 263.9 4 224 C 4 184.1 13.8 147.2 33.6 113.5 C 53.4 79.8 80.1 53.1 113.6 33.5 C 147.1 13.9 184.1 4 224 4 C 263.9 4 300.8 13.8 334.5 33.6 C 368.2 53.4 394.9 80.1 414.5 113.6 C 434.1 147.1 444 184.1 444 224 Z"/></g><g><g transform="matrix(1, 0, 0, 1, 0, 0)"><g transform="matrix(1, 0, 0, 1, 0, 0)"><path id="_292D119E-8FE2-4639-B2D9-EC60A1368B7E?shapeType=BORDER&amp;renderType=FILL" fill="#4aa241" stroke="none" paint-order="stroke" d="M 0 0 M 224 0 C 100.3 0 0 100.3 0 224 C 0 347.7 100.3 448 224 448 C 347.7 448 448 347.7 448 224 C 448 100.3 347.7 0 224 0 Z M 0 0 M 224 432 C 109.1 432 16 338.9 16 224 C 16 109.1 109.1 16 224 16 C 338.9 16 432 109.1 432 224 C 432 338.9 338.9 432 224 432 Z"/></g></g></g></g><g transform="matrix(1, 0, 0, 1, 0, 56)"><g/><g><path id="_292D119E-8FE2-4639-B2D9-EC60A1368B7Eundefined" fill="none" stroke="black" stroke-dasharray="" stroke-miterlimit="10" stroke-opacity="0.1" paint-order="fill" d="M 0 0 L 0 0"/></g></g></g><g id="_C055854F-B4EC-4A51-A3D8-A70ED551EA4A" transform="matrix(1, 0, 0, 1, 606, 100)" bpmn2nodeid="_C055854F-B4EC-4A51-A3D8-A70ED551EA4A"><g><path fill="none" stroke="none"/></g><g transform="matrix(0.125, 0, 0, 0.125, 0, 0)"><g transform="matrix(1, 0, 0, 1, 0, 0)"><path id="_C055854F-B4EC-4A51-A3D8-A70ED551EA4A?shapeType=BACKGROUND" fill="#fce7e7" stroke="none" paint-order="stroke" d="M 0 0 M 444 224 C 444 263.9 434.2 300.8 414.4 334.5 C 394.7 368.2 368 394.9 334.4 414.5 C 300.8 434.1 263.9 444 224 444 C 184.1 444 147.2 434.2 113.5 414.4 C 79.8 394.7 53.1 368 33.5 334.4 C 13.9 300.8 4 263.9 4 224 C 4 184.1 13.8 147.2 33.6 113.5 C 53.4 79.8 80.1 53.1 113.6 33.5 C 147.1 13.9 184.1 4 224 4 C 263.9 4 300.8 13.8 334.5 33.6 C 368.2 53.4 394.9 80.1 414.5 113.6 C 434.1 147.1 444 184.1 444 224 Z"/></g><g><g transform="matrix(1, 0, 0, 1, 0, 0)"><g transform="matrix(1, 0, 0, 1, 0, 0)"><path id="_C055854F-B4EC-4A51-A3D8-A70ED551EA4A?shapeType=BORDER&amp;renderType=FILL" fill="#a30000" stroke="none" paint-order="stroke" d="M 0 0 M 224 0 C 100.3 0 0 100.3 0 224 C 0 347.7 100.3 448 224 448 C 347.7 448 448 347.7 448 224 C 448 100.3 347.7 0 224 0 Z M 0 0 M 224 400 C 126.8 400 48 321.2 48 224 C 48 126.8 126.8 48 224 48 C 321.2 48 400 126.8 400 224 C 400 321.2 321.2 400 224 400 Z"/></g></g></g></g><g transform="matrix(1, 0, 0, 1, 0, 56)"><g/><g><path id="_C055854F-B4EC-4A51-A3D8-A70ED551EA4Aundefined" fill="none" stroke="black" stroke-dasharray="" stroke-miterlimit="10" stroke-opacity="0.1" paint-order="fill" d="M 0 0 L 0 0"/></g></g></g><g id="_4FD16B77-7D6A-46F0-B49B-0F150F88C59D" transform="matrix(1, 0, 0, 1, 236, 100)" bpmn2nodeid="_4FD16B77-7D6A-46F0-B49B-0F150F88C59D"><g><path fill="none" stroke="none"/></g><g transform="matrix(0.125, 0, 0, 0.125, 0, 0)"><g transform="matrix(1, 0, 0, 1, 0, 0)"><path id="_4FD16B77-7D6A-46F0-B49B-0F150F88C59D?shapeType=BACKGROUND" fill="#fbefcf" stroke="none" paint-order="stroke" d="M 0 0 M 444 224 C 444 263.9 434.2 300.8 414.4 334.5 C 394.7 368.2 368 394.9 334.4 414.5 C 300.8 434.1 263.9 444 224 444 C 184.1 444 147.2 434.2 113.5 414.4 C 79.8 394.7 53.1 368 33.5 334.4 C 13.9 300.8 4 263.9 4 224 C 4 184.1 13.8 147.2 33.6 113.5 C 53.4 79.8 80.1 53.1 113.6 33.5 C 147.1 13.9 184.1 4 224 4 C 263.9 4 300.8 13.8 334.5 33.6 C 368.2 53.4 394.9 80.1 414.5 113.6 C 434.1 147.1 444 184.1 444 224 Z"/></g><g><g transform="matrix(1, 0, 0, 1, 0, 0)"><g transform="matrix(1, 0, 0, 1, 0, 0)"><path id="_4FD16B77-7D6A-46F0-B49B-0F150F88C59D?shapeType=BORDER&amp;renderType=FILL" fill="#e5a000" stroke="none" paint-order="stroke" d="M 0 0 M 224 408 C 122.5 408 40 325.5 40 224 C 40 122.5 122.5 40 224 40 C 325.5 40 408 122.5 408 224 C 408 325.5 325.5 408 224 408 Z M 0 0 M 224 56 C 131.4 56 56 131.4 56 224 C 56 316.6 131.4 392 224 392 C 316.6 392 392 316.6 392 224 C 392 131.4 316.6 56 224 56 Z M 0 0 M 224 16 C 252.1 16 279.3 21.5 305 32.3 C 329.8 42.8 352 57.8 371.1 76.9 C 390.2 96 405.2 118.3 415.7 143 C 426.5 168.6 432 195.9 432 224 C 432 252.1 426.5 279.3 415.7 305 C 405.2 329.8 390.2 352 371.1 371.1 C 352 390.2 329.7 405.2 305 415.7 C 279.4 426.5 252.1 432 224 432 C 195.9 432 168.7 426.5 143 415.7 C 118.2 405.2 96 390.2 76.9 371.1 C 57.8 352 42.8 329.7 32.3 305 C 21.5 279.3 16 252.1 16 224 C 16 195.9 21.5 168.7 32.3 143 C 42.8 118.2 57.8 96 76.9 76.9 C 96 57.8 118.3 42.8 143 32.3 C 168.7 21.5 195.9 16 224 16 M 224 0 C 100.3 0 0 100.3 0 224 C 0 347.7 100.3 448 224 448 C 347.7 448 448 347.7 448 224 C 448 100.3 347.7 0 224 0 L 224 0 Z"/></g></g></g><g><g transform="matrix(1, 0, 0, 1, 0, 0)"><g transform="matrix(1, 0, 0, 1, 0, 0)"><path id="_4FD16B77-7D6A-46F0-B49B-0F150F88C59Dundefined" fill="#e5a000" stroke="none" paint-order="stroke" d="M 0 0 M 224.6 124.8 L 320.5 300.7 L 128.8 300.7 L 224.6 124.8 M 224.6 108.7 C 221.7 108.7 219 109.5 216.5 110.9 C 214 112.3 212.1 114.5 210.6 117 L 114.7 293 C 111.8 298.2 111.9 303.5 114.9 308.8 C 116.3 311.2 118.2 313.2 120.7 314.6 C 123.1 316 125.8 316.7 128.7 316.7 L 320.5 316.7 C 323.4 316.7 325.9 316 328.4 314.6 C 330.9 313.2 332.8 311.3 334.2 308.8 C 337.3 303.6 337.3 298.3 334.4 293 L 238.5 117 C 237.1 114.4 235.2 112.4 232.7 110.9 C 230.2 109.4 227.5 108.7 224.6 108.7 L 224.6 108.7 Z"/></g></g></g></g><g transform="matrix(1, 0, 0, 1, 0, 56)"><g/><g><path id="_4FD16B77-7D6A-46F0-B49B-0F150F88C59Dundefined" fill="none" stroke="black" stroke-dasharray="" stroke-miterlimit="10" stroke-opacity="0.1" paint-order="fill" d="M 0 0 L 0 0"/></g></g></g><g id="_F1CC005B-0A07-4F01-9BA3-0B58CA14C406" transform="matrix(1, 0, 0, 1, 372, 77)" bpmn2nodeid="_F1CC005B-0A07-4F01-9BA3-0B58CA14C406"><g><path fill="none" stroke="none"/></g><g transform="matrix(1, 0, 0, 1, 0, 0)"><path id="_F1CC005B-0A07-4F01-9BA3-0B58CA14C406?shapeType=BACKGROUND" fill="#ffffff" stroke="none" paint-order="stroke" d="M 2 0 L 152 0 L 152 0 A 2 2 0 0 1 154 2 L 154 100 L 154 100 A 2 2 0 0 1 152 102 L 2 102 L 2 102 A 2 2 0 0 1 0 100 L 0 2 L 0 2 A 2 2 0 0 1 2 0 Z"/></g><g transform="matrix(1, 0, 0, 1, 0, 0)"><path id="_F1CC005B-0A07-4F01-9BA3-0B58CA14C406?shapeType=BORDER&amp;renderType=STROKE" fill="none" stroke="rgb(0, 0, 0)" stroke-dasharray="" stroke-miterlimit="10" stroke-width="1.5" paint-order="fill" d="M 2 0 L 152 0 L 152 0 A 2 2 0 0 1 154 2 L 154 100 L 154 100 A 2 2 0 0 1 152 102 L 2 102 L 2 102 A 2 2 0 0 1 0 100 L 0 2 L 0 2 A 2 2 0 0 1 2 0 Z"/></g><g><g transform="matrix(0.06, 0, 0, 0.06, 9.4, 9.4)"><g transform="matrix(1, 0, 0, 1, 0, 0)"><path id="_F1CC005B-0A07-4F01-9BA3-0B58CA14C406undefined" fill="#393f44" stroke="none" paint-order="stroke" d="M 0 0 M 16 445.21 C 16 440.869 18.7843 431.129 22.0013 424.217 C 35.7676 394.64 77.2829 359.28 129 333.084 C 144.516 325.224 157.347 319.964 167.807 317.174 C 171.932 316.074 175.729 314.414 176.525 313.363 C 178.894 310.234 180.914 302.908 181.727 294.5 L 182.5 286.5 L 178.507 283.455 C 166.303 274.146 154.284 251.678 148.04 226.5 C 145.611 216.707 145.056 215.462 142.984 215.158 C 141.703 214.97 138.083 212.243 134.939 209.099 C 123.233 197.393 116.891 177.376 121.44 166.49 C 123.002 162.751 128.155 159.01 131.75 159.004 C 134.448 159 134.471 158.603 132.914 138.788 C 130.927 113.496 134.279 92.2654 143.132 74.0757 C 152.232 55.3798 167.569 42.8821 189.049 36.6595 C 210.203 30.5315 237.797 30.5315 258.951 36.6595 C 300.042 48.563 318.958 83.8063 314.955 141 C 314.32 150.075 313.624 157.788 313.409 158.14 C 313.194 158.493 314.575 159.073 316.479 159.43 C 328.929 161.766 330.986 177.018 321.496 196.621 C 316.903 206.109 309.357 214.508 304.817 215.185 C 303.023 215.453 302.293 217.146 299.943 226.5 C 296.659 239.567 294.474 245.305 287.948 257.995 C 282.491 268.606 273.035 281.109 268.108 284.229 L 264.871 286.278 L 265.518 292.889 C 266.345 301.33 268.639 309.871 270.877 312.837 C 272.067 314.415 275.002 315.79 280.063 317.139 C 291.069 320.075 303.617 325.274 321 334.102 C 369.815 358.891 410.848 393.758 425.032 422.5 C 429.07 430.682 432 440.232 432 445.21 L 432 448 L 224 448 L 16 448 L 16 445.21 Z"/></g></g></g><g transform="matrix(1, 0, 0, 1, 0, 43.5)"><g><text id="_F1CC005B-0A07-4F01-9BA3-0B58CA14C406undefined" font-family="Open Sans" font-size="12pt" font-style="normal" font-weight="normal" text-decoration="normal" dominant-baseline="alphabetic" fill="#000000" stroke="none" text-anchor="middle" x="77" y="12">      Received data      </text><path fill="none" stroke="none"/><text font-family="Open Sans" font-size="12pt" font-style="normal" font-weight="normal" text-decoration="normal" dominant-baseline="alphabetic" fill="none" stroke="#393f44" stroke-dasharray="" stroke-miterlimit="10" text-anchor="middle" x="77" y="12">      Received data      </text></g><g><path id="_F1CC005B-0A07-4F01-9BA3-0B58CA14C406undefined" fill="none" stroke="black" stroke-dasharray="" stroke-miterlimit="10" stroke-opacity="0.1" paint-order="fill" d="M 0 0 L 0 0"/></g></g></g><g id="_CE6A869B-F0BC-43B9-836F-5943F489AC76" bpmn2nodeid="_CE6A869B-F0BC-43B9-836F-5943F489AC76"><g><path fill="none" stroke="rgb(0, 0, 0)" stroke-dasharray="" stroke-miterlimit="10" paint-order="fill" d="M 156 128 L 221 128"/></g><g transform="matrix(1, 0, 0, 1, 156, 128)"/><g transform="matrix(6.12323e-017, 1, -1, 6.12323e-017, 236, 123)"><path fill="rgb(0, 0, 0)" stroke="rgb(0, 0, 0)" stroke-dasharray="" stroke-miterlimit="10" paint-order="fill" d="M 10 15 L 0 15 L 5 0 Z"/></g></g><g id="_4176BAF1-4374-446E-9446-D05116691A41" bpmn2nodeid="_4176BAF1-4374-446E-9446-D05116691A41"><g><path fill="none" stroke="rgb(0, 0, 0)" stroke-dasharray="" stroke-miterlimit="10" paint-order="fill" d="M 292 128 L 357 128"/></g><g transform="matrix(1, 0, 0, 1, 292, 128)"/><g transform="matrix(6.12323e-017, 1, -1, 6.12323e-017, 372, 123)"><path fill="rgb(0, 0, 0)" stroke="rgb(0, 0, 0)" stroke-dasharray="" stroke-miterlimit="10" paint-order="fill" d="M 10 15 L 0 15 L 5 0 Z"/></g></g><g id="_39D5D8EE-68E1-4D05-89D6-5D4B7CEE1368" bpmn2nodeid="_39D5D8EE-68E1-4D05-89D6-5D4B7CEE1368"><g><path fill="none" stroke="rgb(0, 0, 0)" stroke-dasharray="" stroke-miterlimit="10" paint-order="fill" d="M 526 128 L 591 128"/></g><g transform="matrix(1, 0, 0, 1, 526, 128)"/><g transform="matrix(6.12323e-017, 1, -1, 6.12323e-017, 606, 123)"><path fill="rgb(0, 0, 0)" stroke="rgb(0, 0, 0)" stroke-dasharray="" stroke-miterlimit="10" paint-order="fill" d="M 10 15 L 0 15 L 5 0 Z"/></g></g><g transform="matrix(1, 0, 0, 1, 100, 100)"/><g transform="matrix(1, 0, 0, 1, 606, 100)"/><g transform="matrix(1, 0, 0, 1, 236, 100)"/><g transform="matrix(1, 0, 0, 1, 372, 77)"/></g></g></svg>