<svg xmlns="http://www.w3.org/2000/svg" viewBox="0 0 576 229" width="576" height="229" version="1.1" xmlns:xlink="http://www.w3.org/1999/xlink"><defs/><g transform="matrix(1, 0, 0, 1, 0, 0)"><g><g><g><path fill="none" stroke="#d3d3d3" stroke-dasharray="5px" stroke-miterlimit="10" stroke-opacity="0.8" paint-order="fill" d="M 0 0 L 1200 0"/></g><g><path fill="none" stroke="#d3d3d3" stroke-dasharray="5px" stroke-miterlimit="10" stroke-opacity="0.8" paint-order="fill" d="M 0 0 L 0 800"/></g></g><g id="_107B3836-430A-4B8A-AAD2-861D95483D4E" transform="matrix(1, 0, 0, 1, 236, 77)" bpmn2nodeid="_107B3836-430A-4B8A-AAD2-861D95483D4E"><g><path fill="none" stroke="none"/></g><g transform="matrix(1, 0, 0, 1, 0, 0)"><path id="_107B3836-430A-4B8A-AAD2-861D95483D4E?shapeType=BACKGROUND" fill="#ffffff" stroke="none" paint-order="stroke" d="M 2 0 L 152 0 L 152 0 A 2 2 0 0 1 154 2 L 154 100 L 154 100 A 2 2 0 0 1 152 102 L 2 102 L 2 102 A 2 2 0 0 1 0 100 L 0 2 L 0 2 A 2 2 0 0 1 2 0 Z"/></g><g transform="matrix(1, 0, 0, 1, 0, 0)"><path id="_107B3836-430A-4B8A-AAD2-861D95483D4E?shapeType=BORDER&amp;renderType=STROKE" fill="none" stroke="rgb(0, 0, 0)" stroke-dasharray="" stroke-miterlimit="10" stroke-width="1.5" paint-order="fill" d="M 2 0 L 152 0 L 152 0 A 2 2 0 0 1 154 2 L 154 100 L 154 100 A 2 2 0 0 1 152 102 L 2 102 L 2 102 A 2 2 0 0 1 0 100 L 0 2 L 0 2 A 2 2 0 0 1 2 0 Z"/></g><g><g transform="matrix(0.06, 0, 0, 0.06, 9.4, 9.4)"><g transform="matrix(1, 0, 0, 1, 0, 0)"><path id="_107B3836-430A-4B8A-AAD2-861D95483D4Eundefined" fill="#393f44" stroke="none" paint-order="stroke" d="M 0 0 M 197.3 130.2 C 194.4 127.3 189.6 127.3 186.7 130.2 L 130.2 186.7 C 127.3 189.6 127.3 194.4 130.2 197.3 L 186.7 253.8 C 188.1 255.3 190.1 256 192 256 C 193.9 256 195.9 255.3 197.3 253.7 C 200.2 250.8 200.2 246 197.3 243.1 L 146.2 192 L 197.3 140.8 C 200.2 137.9 200.2 133.1 197.3 130.2 Z"/></g><g transform="matrix(1, 0, 0, 1, 0, 0)"><path id="_107B3836-430A-4B8A-AAD2-861D95483D4Eundefined" fill="#393f44" stroke="none" paint-order="stroke" d="M 0 0 M 261.3 130.2 C 258.4 127.3 253.6 127.3 250.7 130.2 C 247.8 133.1 247.8 137.9 250.7 140.8 L 301.8 191.9 L 250.7 243 C 247.8 245.9 247.8 250.7 250.7 253.6 C 252.1 255.3 254.1 256 256 256 C 257.9 256 259.9 255.3 261.3 253.8 L 317.8 197.3 C 320.7 194.4 320.7 189.6 317.8 186.7 L 261.3 130.2 Z"/></g><g transform="matrix(1, 0, 0, 1, 0, 0)"><path id="_107B3836-430A-4B8A-AAD2-861D95483D4Eundefined" fill="#393f44" stroke="none" paint-order="stroke" d="M 0 0 M 400 32 C 400 32 152.8 32 128 32 C 62 32 64 96 64 96 L 64 288 L 1 288 C 1 288 -4 416 78 416 L 320 416 C 368 416 384 368 384 336 C 384 314.2 384 224.4 384 160 L 448 160 L 448 96 C 448 96 449 32 400 32 Z M 0 0 M 78 383.9 C 68.5 383.9 61.6 381.1 55.5 374.9 C 43.4 362.4 37.5 339.6 34.9 320 L 256.9 320 C 257.1 322.7 257.3 325.4 257.6 328.2 C 260 351.6 264.7 370.1 271.9 383.9 L 78 383.9 L 78 383.9 Z M 0 0 M 352 336 C 352 345.9 349.6 360.3 342.9 371 C 337.2 380.1 330.4 384 320 384 C 285 384 288 288 288 288 L 96 288 L 96 96 L 96 95.9 L 96 95.1 C 96 90.6 97.6 78.3 104.7 71.2 C 106.5 69.4 111.9 64 128 64 L 356.5 64 C 354.4 72.8 352.8 81.8 352.2 89.9 C 352.2 90.5 352.1 91.1 352.1 91.7 C 352.1 92 352.1 92.3 352.1 92.6 C 352 94.8 352 96 352 96 L 352 160 L 352 336 Z"/></g></g></g><g transform="matrix(1, 0, 0, 1, 0, 43.5)"><g><text id="_107B3836-430A-4B8A-AAD2-861D95483D4Eundefined" font-family="Open Sans" font-size="12pt" font-style="normal" font-weight="normal" text-decoration="normal" dominant-baseline="alphabetic" fill="#000000" stroke="none" text-anchor="middle" x="77" y="12">              Task               </text><path fill="none" stroke="none"/><text font-family="Open Sans" font-size="12pt" font-style="normal" font-weight="normal" text-decoration="normal" dominant-baseline="alphabetic" fill="none" stroke="#393f44" stroke-dasharray="" stroke-miterlimit="10" text-anchor="middle" x="77" y="12">              Task               </text></g><g><path id="_107B3836-430A-4B8A-AAD2-861D95483D4Eundefined" fill="none" stroke="black" stroke-dasharray="" stroke-miterlimit="10" stroke-opacity="0.1" paint-order="fill" d="M 0 0 L 0 0"/></g></g></g><g id="_CDD30EB0-0FE9-4D0F-B65B-5526EB53FE84" transform="matrix(1, 0, 0, 1, 470, 100)" bpmn2nodeid="_CDD30EB0-0FE9-4D0F-B65B-5526EB53FE84"><g><path fill="none" stroke="none"/></g><g transform="matrix(0.125, 0, 0, 0.125, 0, 0)"><g transform="matrix(1, 0, 0, 1, 0, 0)"><path id="_CDD30EB0-0FE9-4D0F-B65B-5526EB53FE84?shapeType=BACKGROUND" fill="#fce7e7" stroke="none" paint-order="stroke" d="M 0 0 M 444 224 C 444 263.9 434.2 300.8 414.4 334.5 C 394.7 368.2 368 394.9 334.4 414.5 C 300.8 434.1 263.9 444 224 444 C 184.1 444 147.2 434.2 113.5 414.4 C 79.8 394.7 53.1 368 33.5 334.4 C 13.9 300.8 4 263.9 4 224 C 4 184.1 13.8 147.2 33.6 113.5 C 53.4 79.8 80.1 53.1 113.6 33.5 C 147.1 13.9 184.1 4 224 4 C 263.9 4 300.8 13.8 334.5 33.6 C 368.2 53.4 394.9 80.1 414.5 113.6 C 434.1 147.1 444 184.1 444 224 Z"/></g><g><g transform="matrix(1, 0, 0, 1, 0, 0)"><g transform="matrix(1, 0, 0, 1, 0, 0)"><path id="_CDD30EB0-0FE9-4D0F-B65B-5526EB53FE84?shapeType=BORDER&amp;renderType=FILL" fill="rgb(163, 0, 0)" stroke="none" paint-order="stroke" d="M 0 0 M 224 0 C 100.3 0 0 100.3 0 224 C 0 347.7 100.3 448 224 448 C 347.7 448 448 347.7 448 224 C 448 100.3 347.7 0 224 0 Z M 0 0 M 224 400 C 126.8 400 48 321.2 48 224 C 48 126.8 126.8 48 224 48 C 321.2 48 400 126.8 400 224 C 400 321.2 321.2 400 224 400 Z"/></g></g></g><g><g transform="matrix(1, 0, 0, 1, 0, 0)"><g transform="matrix(1, 0, 0, 1, 0, 0)"><path id="_CDD30EB0-0FE9-4D0F-B65B-5526EB53FE84undefined" fill="#a30000" stroke="none" paint-order="stroke" d="M 0 0 M 224.6 124.8 L 320.5 300.7 L 128.8 300.7 L 224.6 124.8 M 224.6 108.7 C 221.7 108.7 219 109.5 216.5 110.9 C 214 112.3 212.1 114.5 210.6 117 L 114.7 293 C 111.8 298.2 111.9 303.5 114.9 308.8 C 116.3 311.2 118.2 313.2 120.7 314.6 C 123.1 316 125.8 316.7 128.7 316.7 L 320.5 316.7 C 323.4 316.7 325.9 316 328.4 314.6 C 330.9 313.2 332.8 311.3 334.2 308.8 C 337.3 303.6 337.3 298.3 334.4 293 L 238.5 117 C 237.1 114.4 235.2 112.4 232.7 110.9 C 230.2 109.4 227.5 108.7 224.6 108.7 L 224.6 108.7 Z"/></g></g></g></g><g transform="matrix(1, 0, 0, 1, 0, 56)"><g/><g><path id="_CDD30EB0-0FE9-4D0F-B65B-5526EB53FE84undefined" fill="none" stroke="black" stroke-dasharray="" stroke-miterlimit="10" stroke-opacity="0.1" paint-order="fill" d="M 0 0 L 0 0"/></g></g></g><g id="_7EF01452-9DE8-413C-BDB1-76774C8C51ED" transform="matrix(1, 0, 0, 1, 100, 100)" bpmn2nodeid="_7EF01452-9DE8-413C-BDB1-76774C8C51ED"><g><path fill="none" stroke="none"/></g><g transform="matrix(0.125, 0, 0, 0.125, 0, 0)"><g transform="matrix(1, 0, 0, 1, 0, 0)"><path id="_7EF01452-9DE8-413C-BDB1-76774C8C51ED?shapeType=BACKGROUND" fill="#e8fae6" stroke="none" paint-order="stroke" d="M 0 0 M 444 224 C 444 263.9 434.2 300.8 414.4 334.5 C 394.7 368.2 368 394.9 334.4 414.5 C 300.8 434.1 263.9 444 224 444 C 184.1 444 147.2 434.2 113.5 414.4 C 79.8 394.7 53.1 368 33.5 334.4 C 13.9 300.8 4 263.9 4 224 C 4 184.1 13.8 147.2 33.6 113.5 C 53.4 79.8 80.1 53.1 113.6 33.5 C 147.1 13.9 184.1 4 224 4 C 263.9 4 300.8 13.8 334.5 33.6 C 368.2 53.4 394.9 80.1 414.5 113.6 C 434.1 147.1 444 184.1 444 224 Z"/></g><g><g transform="matrix(1, 0, 0, 1, 0, 0)"><g transform="matrix(1, 0, 0, 1, 0, 0)"><path id="_7EF01452-9DE8-413C-BDB1-76774C8C51ED?shapeType=BORDER&amp;renderType=FILL" fill="#4aa241" stroke="none" paint-order="stroke" d="M 0 0 M 224 0 C 100.3 0 0 100.3 0 224 C 0 347.7 100.3 448 224 448 C 347.7 448 448 347.7 448 224 C 448 100.3 347.7 0 224 0 Z M 0 0 M 224 432 C 109.1 432 16 338.9 16 224 C 16 109.1 109.1 16 224 16 C 338.9 16 432 109.1 432 224 C 432 338.9 338.9 432 224 432 Z"/></g></g></g></g><g transform="matrix(1, 0, 0, 1, 0, 56)"><g/><g><path id="_7EF01452-9DE8-413C-BDB1-76774C8C51EDundefined" fill="none" stroke="black" stroke-dasharray="" stroke-miterlimit="10" stroke-opacity="0.1" paint-order="fill" d="M 0 0 L 0 0"/></g></g></g><g id="_8EFCBD41-0E1A-47F3-95F5-93546E12258B" bpmn2nodeid="_8EFCBD41-0E1A-47F3-95F5-93546E12258B"><g><path fill="none" stroke="rgb(0, 0, 0)" stroke-dasharray="" stroke-miterlimit="10" paint-order="fill" d="M 156 128 L 221 128"/></g><g transform="matrix(1, 0, 0, 1, 156, 128)"/><g transform="matrix(6.12323e-017, 1, -1, 6.12323e-017, 236, 123)"><path fill="rgb(0, 0, 0)" stroke="rgb(0, 0, 0)" stroke-dasharray="" stroke-miterlimit="10" paint-order="fill" d="M 10 15 L 0 15 L 5 0 Z"/></g></g><g id="_22DE1F70-2442-4A7B-8082-FCF218AC5B5E" bpmn2nodeid="_22DE1F70-2442-4A7B-8082-FCF218AC5B5E"><g><path fill="none" stroke="rgb(0, 0, 0)" stroke-dasharray="" stroke-miterlimit="10" paint-order="fill" d="M 390 128 L 455 128"/></g><g transform="matrix(1, 0, 0, 1, 390, 128)"/><g transform="matrix(6.12323e-017, 1, -1, 6.12323e-017, 470, 123)"><path fill="rgb(0, 0, 0)" stroke="rgb(0, 0, 0)" stroke-dasharray="" stroke-miterlimit="10" paint-order="fill" d="M 10 15 L 0 15 L 5 0 Z"/></g></g><g transform="matrix(1, 0, 0, 1, 236, 77)"/><g transform="matrix(1, 0, 0, 1, 470, 100)"/><g transform="matrix(1, 0, 0, 1, 100, 100)"/></g></g></svg>